<?xml version="1.0" encoding="UTF-8"?>
<!-- Created with Inkscape (http://www.inkscape.org/) -->
<svg width="200" height="187.23" version="1.1" viewBox="0 0 200 187.23" xmlns="http://www.w3.org/2000/svg" xmlns:xlink="http://www.w3.org/1999/xlink">
 <defs>
  <clipPath id="clipPath2">
   <path transform="translate(-736.32 -622.97)" d="M 0,887.1 H 947.626 V 0 H 0 Z"/>
  </clipPath>
  <clipPath id="clipPath4">
   <path transform="translate(-496.17 -778.83)" d="M 0,887.1 H 947.626 V 0 H 0 Z"/>
  </clipPath>
  <clipPath id="clipPath6">
   <path transform="translate(-27.016 -168.09)" d="M 0,887.1 H 947.626 V 0 H 0 Z"/>
  </clipPath>
  <clipPath id="clipPath8">
   <path transform="translate(-1.1259 -623.52)" d="M 0,887.1 H 947.626 V 0 H 0 Z"/>
  </clipPath>
  <clipPath id="clipPath10">
   <path transform="translate(-767.71 -872.24)" d="M 0,887.1 H 947.626 V 0 H 0 Z"/>
  </clipPath>
  <clipPath id="clipPath12">
   <path transform="translate(-253.08 -877.61)" d="M 0,887.1 H 947.626 V 0 H 0 Z"/>
  </clipPath>
  <clipPath id="clipPath14">
   <path transform="translate(-279.64 -146.84)" d="M 0,887.1 H 947.626 V 0 H 0 Z"/>
  </clipPath>
  <clipPath id="clipPath16">
   <path transform="translate(-577.32 -144.82)" d="M 0,887.1 H 947.626 V 0 H 0 Z"/>
  </clipPath>
  <clipPath id="clipPath18">
   <path transform="translate(-830.22 -544.09)" d="M 0,887.1 H 947.626 V 0 H 0 Z"/>
  </clipPath>
  <clipPath id="clipPath20">
   <path transform="translate(-781.75 -291.03)" d="M 0,887.1 H 947.626 V 0 H 0 Z"/>
  </clipPath>
 </defs>
 <g transform="translate(-1.0131e-5 -.0003567)" fill="#231f20">
  <path transform="matrix(.21105 0 0 -.21105 155.4 55.745)" d="m0 0c-2.123 0-4.276-0.739-6.048-2.315-72.861-64.798-170.86-117.45-286.93-165.76 0.204 0-5.205-1.74-6.606-2.059-7.116-1.619-14.059-2.416-20.865-2.416-16.851 0-32.84 4.888-48.39 14.267-32.276 19.466-65.264 37.749-97.863 56.684-29.3 17.019-58.51 34.192-87.909 51.41-1.344 0.788-2.805 1.157-4.242 1.157-3.344 0-6.557-2.001-7.861-5.385-25.912-67.364-51.782-134.74-77.704-202.1-6.073-15.782-6.139-15.743 8.463-24.791 98.453-61.005 196.99-121.87 295.25-183.19 6.853-4.276 13.178-6.453 19.527-6.453 6.207 0 12.437 2.081 19.198 6.317 127.07 79.605 254.36 158.87 381.76 237.96 8.623 5.353 10.534 10.693 6.853 20.048-21.571 54.826-42.722 109.82-64.037 164.74-4.813 12.402-9.661 24.79-14.077 36.075-1.455 3.718-4.947 5.812-8.522 5.812m-2.921-21.16c3.333-8.524 6.888-17.626 10.372-26.605 5.973-15.393 11.934-30.791 17.895-46.19 15.058-38.901 30.629-79.126 46.17-118.62 0.011-0.028 0.022-0.056 0.032-0.083-0.106-0.068-0.217-0.139-0.336-0.212-143.23-88.919-268.12-166.77-381.81-237.99-4.123-2.583-7.581-3.839-10.572-3.839-3.049 0-6.623 1.305-10.925 3.989-75.235 46.948-151.88 94.408-226.01 140.3-23.097 14.301-46.193 28.603-69.285 42.911-1.022 0.633-2.091 1.296-3.089 1.924 0.372 0.984 0.769 2.018 1.151 3.009l0.081 0.21c14.305 37.173 28.594 74.351 42.883 111.53 10.501 27.322 21.001 54.642 31.505 81.955 4.398-2.577 8.791-5.152 13.183-7.727 21.89-12.832 44.525-26.101 66.818-39.05 11.616-6.747 23.45-13.508 34.895-20.047 20.686-11.819 42.077-24.04 62.738-36.501 18.266-11.016 37.37-16.601 56.782-16.601 8.013 0 16.246 0.949 24.471 2.821 0.437 0.099 1.597 0.363 5.107 1.471 0.841 0.265 1.632 0.522 2.213 0.716 0.405 0.135 0.736 0.25 0.966 0.333 0.377 0.136 0.746 0.283 1.107 0.442 125.75 52.355 216.25 103.96 283.66 161.85" clip-path="url(#clipPath2)"/>
  <path transform="matrix(.21105 0 0 -.21105 104.72 22.852)" d="m0 0c-5.14 0-10.267-1.001-15.071-3.024-4.518-1.903-8.768-3.972-12.364-6.857-53.853-43.203-111.81-80.114-172.72-112.24-32.897-17.351-67.198-32.05-100.95-47.765-9.504-4.424-11.984-14.854-4.865-22.549 2.6-2.81 5.994-5.032 9.346-6.973 58.785-34.042 117.86-67.598 176.32-102.18 13.116-7.759 26.223-11.355 39.63-11.355 9.293 0 18.73 1.729 28.407 4.997 57.677 19.479 111.21 47.595 163.11 78.926 39.295 23.723 77.566 49.049 110.5 81.423 14.663 14.415 13.495 22.623-3.821 32.531-61.031 34.923-121.98 70-183.32 104.37-6.697 3.753-14.106 6.237-21.903 8.753-4.001 1.292-8.155 1.943-12.301 1.943m0-16.249c2.472 0 4.932-0.389 7.31-1.157 7.523-2.428 13.696-4.519 18.951-7.464 50.291-28.183 101.19-57.338 150.41-85.533 10.926-6.258 21.851-12.516 32.779-18.77 1.92-1.098 3.308-2.009 4.301-2.727-0.828-1.024-2.04-2.382-3.801-4.113-32.896-32.338-71.111-57.128-107.51-79.1-60.114-36.291-110.93-60.899-159.91-77.442-8.254-2.788-15.845-4.143-23.208-4.143-10.759 0-21.016 2.973-31.357 9.091-39.806 23.546-80.52 46.979-119.9 69.64-18.549 10.676-37.729 21.715-56.555 32.616-0.589 0.341-1.874 1.086-3.133 1.956 8.47 3.927 17.088 7.85 25.449 11.655 24.292 11.058 49.412 22.491 73.591 35.244 65.387 34.489 122.73 71.759 175.31 113.94 2.253 1.807 5.563 3.317 8.504 4.556 2.758 1.161 5.707 1.75 8.764 1.75" clip-path="url(#clipPath4)"/>
  <path transform="matrix(.21105 0 0 -.21105 5.7019 151.75)" d="m0 0c-1.594-1.192-3.448-2.013-5.414-2.322-7.687-1.209-13.023 0.847-17.382 5.985-4.579 5.398-5.536 13.183-2.359 19.317 0.652 1.259 1.379 2.543 2.335 3.57 23.935 25.717 47.75 51.549 71.966 76.999 7.19 7.556 16.503 7.71 23.801 1.872 7.547-6.04 9.239-15.251 4.114-23.487-1.491-2.396-3.374-4.591-5.305-6.666-21.507-23.107-43.005-46.222-64.66-69.191-2.568-2.724-4.276-3.967-7.096-6.077" clip-path="url(#clipPath6)"/>
  <path transform="matrix(.21105 0 0 -.21105 .23763 55.631)" d="m0 0c3.259 16.031 17.005 21.324 28.909 13.517 17.871-11.72 35.584-23.68 53.351-35.558 8.094-5.411 16.226-10.769 24.215-16.331 9.943-6.923 12.342-16.944 6.42-25.898-5.754-8.7-16.286-10.223-26.348-3.536-25.906 17.217-51.714 34.58-77.619 51.799-6.901 4.586-9.654 10.79-8.928 16.007" clip-path="url(#clipPath8)"/>
  <path transform="matrix(.21105 0 0 -.21105 162.03 3.1358)" d="m0 0c17.395-5.445 21.563-21.67 11.414-34.381-15.237-19.083-30.723-37.961-46.122-56.909-7.016-8.632-13.976-17.314-21.146-25.81-8.925-10.575-20.35-12.222-29.557-4.511-8.944 7.493-9.325 19.651-0.648 30.386 22.341 27.639 44.832 55.151 67.173 82.789 5.952 7.362 13.183 9.827 18.886 8.436" clip-path="url(#clipPath10)"/>
  <path transform="matrix(.21105 0 0 -.21105 53.413 2.0023)" d="m0 0c10.74 14.027 27.632 11.842 36.611-2.246 13.482-21.151 26.687-42.454 39.987-63.704 6.059-9.681 12.183-19.33 18.062-29.103 7.318-12.164 5.277-23.319-5.042-28.947-10.027-5.469-21.814-1.301-29.364 10.694-19.439 30.884-38.709 61.86-58.146 92.746-5.179 8.227-5.251 15.815-2.108 20.56" clip-path="url(#clipPath12)"/>
  <path transform="matrix(.21105 0 0 -.21105 59.018 156.23)" d="m0 0c18.048-0.281 26.546-15.07 20.462-30.58-9.135-23.288-18.564-46.444-27.891-69.646-4.25-10.569-8.432-21.172-12.867-31.652-5.52-13.045-15.912-18.015-26.815-13.1-10.593 4.774-14.357 16.658-9.117 29.789 13.489 33.807 27.157 67.532 40.648 101.34 3.594 9.006 9.773 13.554 15.58 13.85" clip-path="url(#clipPath14)"/>
  <path transform="matrix(.21105 0 0 -.21105 121.85 156.66)" d="m0 0c8.768 15.425 25.215 15.952 35.375 3.58 15.254-18.576 30.26-37.345 45.351-56.047 6.874-8.519 13.808-16.997 20.521-25.636 8.354-10.752 7.618-21.993-1.666-29.131-9.021-6.935-20.788-4.716-29.347 5.834-22.037 27.163-43.922 54.443-65.958 81.607-5.87 7.237-6.772 14.652-4.276 19.793" clip-path="url(#clipPath16)"/>
  <path transform="matrix(.21105 0 0 -.21105 175.22 72.394)" d="m0 0c-11.564 11.571-8.385 25.953 4.697 31.565 19.64 8.426 39.394 16.587 59.108 24.838 8.981 3.759 17.939 7.581 26.988 11.169 11.264 4.465 20.942 0.931 25.136-8.952 4.075-9.601-0.472-19.222-11.604-23.917-28.66-12.088-57.389-24.014-86.049-36.101-7.636-3.219-14.328-2.089-18.276 1.398" clip-path="url(#clipPath18)"/>
  <path transform="matrix(.21105 0 0 -.21105 164.99 125.8)" d="m0 0c3.259 16.031 17.005 21.324 28.909 13.517 17.871-11.72 35.584-23.68 53.351-35.558 8.094-5.411 16.226-10.769 24.215-16.331 9.943-6.924 12.342-16.944 6.42-25.898-5.754-8.7-16.286-10.223-26.348-3.536-25.906 17.217-51.714 34.58-77.619 51.799-6.901 4.586-9.654 10.79-8.928 16.007" clip-path="url(#clipPath20)"/>
 </g>
</svg>
